<svg width="16" height="14" viewBox="0 0 16 14" fill="none" xmlns="http://www.w3.org/2000/svg">
	<path d="M14.9501 0H0.250098C0.167598 0 0.100098 0.0675 0.100098 0.15V1.35C0.100098 1.4325 0.167598 1.5 0.250098 1.5H14.9501C15.0326 1.5 15.1001 1.4325 15.1001 1.35V0.15C15.1001 0.0675 15.0326 0 14.9501 0ZM14.9501 11.7H0.250098C0.167598 11.7 0.100098 11.7675 0.100098 11.85V13.05C0.100098 13.1325 0.167598 13.2 0.250098 13.2H14.9501C15.0326 13.2 15.1001 13.1325 15.1001 13.05V11.85C15.1001 11.7675 15.0326 11.7 14.9501 11.7ZM6.9501 5.85H0.250098C0.167598 5.85 0.100098 5.9175 0.100098 6V7.2C0.100098 7.2825 0.167598 7.35 0.250098 7.35H6.9501C7.0326 7.35 7.1001 7.2825 7.1001 7.2V6C7.1001 5.9175 7.0326 5.85 6.9501 5.85Z" fill="#333333" />
</svg>
